# xmcd
#
# Track frame offsets: 
#        150
#        17250
#        39598
#        52004
#        66581
#        83839
#        99507
#        114018
#        125992
#        142835
#
# Disc length: 2118 seconds
#
# Revision: 0
# Processed by: cddbd v1.5.2PL0 Copyright (c) Steve Scherf et al.
# Submitted via: ExactAudioCopy v1.0b1
#
DISCID=8108440a
DTITLE=Jerry Reed - Ready
DYEAR=1983
DGENRE=Country
TTITLE0=She's Ready For Someone To Love Her
TTITLE1=Ole What's His Name
TTITLE2=Good Ole Boys
TTITLE3=Promises
TTITLE4=I'm A Slave
TTITLE5=Nobody Ever Loved Me
TTITLE6=One Jump Ahead Of The Storm
TTITLE7=All American Country Boy
TTITLE8=Raised On Rock And Roll
TTITLE9=Don't It Make You Wanta Go Home
EXTD=
EXTT0=
EXTT1=
EXTT2=
EXTT3=
EXTT4=
EXTT5=
EXTT6=
EXTT7=
EXTT8=
EXTT9=
PLAYORDER=
